<svg version="1" xmlns="http://www.w3.org/2000/svg" width="682.667" height="682.667" viewBox="0 0 512.000000 512.000000"><path d="M0 256v256h512V0H0v256zM208 78.8l3.5.8.3 17.8.2 17.8-5-.7-5-.7v11.3l-4.7-.8c-7.8-1.3-26-1-27.5.5-.9.9-1.4 5.7-1.6 16.2l-.4 15H207v34h-10v10h-29v163h-10v10h-45V200H79v-34h10v-10h24v-10.5c0-13.1 2.1-23.8 6.5-33.2 2.7-5.7 5.4-9.2 13.2-17.1C143.2 84.6 149 81.1 159 79.1c3-.6 6.4-1.3 7.5-1.5 3.1-.8 37.6.2 41.5 1.2zm152.7 72.3c31.4 4.3 57 24 69.6 53.4 14.1 32.9 14.2 78.9.2 111.5-5.7 13.3-12.9 23.2-26.8 36.7-11.5 11.1-13.4 12.6-22.9 17.2-12.4 6-20.1 8-33.3 8.8-22.3 1.3-45.8-5.2-60.3-16.6L282 358v81h-10v10h-45V166.1l4.8-.3 4.7-.3.3-4.8.3-4.7H280v24.4l8.8-8.6c9.2-9 14.1-12.3 24.1-16.3 12.1-5 31.1-6.7 47.8-4.4z"/><path d="M314.4 197.5c-10.1 2.2-17.9 6.7-21.9 12.8-7.6 11.5-11.8 28.8-11.8 48.7 0 36.5 14.6 62.3 40.1 71.1 15.5 5.4 38.3 2.2 48.2-6.7 15.7-14.2 21.2-57.4 11.1-86.7-6.9-19.8-21.2-34.5-38-38.9-7.8-2-19.3-2.2-27.7-.3z"/></svg>